<?xml version="1.0" encoding="UTF-8"?>
<svg version="1.1" xmlns="http://www.w3.org/2000/svg" width="32" height="32">
<path d="M0 0 C10.56 0 21.12 0 32 0 C32 10.56 32 21.12 32 32 C21.44 32 10.88 32 0 32 C0 21.44 0 10.88 0 0 Z " fill="#D50F30" transform="translate(0,0)"/>
<path d="M0 0 C1.65 0 3.3 0 5 0 C5 2.97 5 5.94 5 9 C8.96 9 12.92 9 17 9 C17 6.03 17 3.06 17 0 C18.65 0 20.3 0 22 0 C22 7.26 22 14.52 22 22 C20.35 22 18.7 22 17 22 C17 19.03 17 16.06 17 13 C13.04 13 9.08 13 5 13 C5 15.97 5 18.94 5 22 C3.35 22 1.7 22 0 22 C0 14.74 0 7.48 0 0 Z " fill="#FBE7EA" transform="translate(5,5)"/>
</svg>
